<?xml version="1.0" encoding="UTF-8" standalone="no"?>
<!-- Created with Inkscape (http://www.inkscape.org/) -->

<svg
   xmlns:dc="http://purl.org/dc/elements/1.1/"
   xmlns:cc="http://creativecommons.org/ns#"
   xmlns:rdf="http://www.w3.org/1999/02/22-rdf-syntax-ns#"
   xmlns:svg="http://www.w3.org/2000/svg"
   xmlns="http://www.w3.org/2000/svg"
   xmlns:sodipodi="http://sodipodi.sourceforge.net/DTD/sodipodi-0.dtd"
   xmlns:inkscape="http://www.inkscape.org/namespaces/inkscape"
   width="320"
   height="240"
   viewBox="0 0 84.666665 63.500002"
   version="1.1"
   id="svg8"
   inkscape:version="0.92.5 (2060ec1f9f, 2020-04-08)"
   sodipodi:docname="spritesheet.svg">
  <defs
     id="defs2" />
  <sodipodi:namedview
     id="base"
     pagecolor="#ffffff"
     bordercolor="#666666"
     borderopacity="1.0"
     inkscape:pageopacity="0.0"
     inkscape:pageshadow="2"
     inkscape:zoom="4"
     inkscape:cx="235.31731"
     inkscape:cy="0.70223402"
     inkscape:document-units="mm"
     inkscape:current-layer="layer1"
     showgrid="true"
     units="px"
     inkscape:window-width="2928"
     inkscape:window-height="1600"
     inkscape:window-x="144"
     inkscape:window-y="54"
     inkscape:window-maximized="1">
    <inkscape:grid
       type="xygrid"
       id="grid48" />
  </sodipodi:namedview>
  <metadata
     id="metadata5">
    <rdf:RDF>
      <cc:Work
         rdf:about="">
        <dc:format>image/svg+xml</dc:format>
        <dc:type
           rdf:resource="http://purl.org/dc/dcmitype/StillImage" />
        <dc:title></dc:title>
      </cc:Work>
    </rdf:RDF>
  </metadata>
  <g
     inkscape:label="Layer 1"
     inkscape:groupmode="layer"
     id="layer1"
     transform="translate(0,-233.49998)">
    <g
       id="rect1313_66_-62"
       transform="matrix(0.08355263,0,0,0.08355263,76.2,290.64998)"
       inkscape:export-xdpi="96"
       inkscape:export-ydpi="96"
       inkscape:export-filename="/home/aharkusha/g287.png">
      <polygon
         id="polygon84-6"
         points="75.001,75.001 1,75.001 1,1 75.001,1 "
         style="fill:#b9b9b9" />
      <path
         id="path86-1"
         d="M 75.991,0 C 75.996,0 76,0.004 76,0.009 V 75.99 C 76,75.996 75.996,76 75.991,76 H 0.009 C 0.004,76 0,75.996 0,75.99 V 0.009 C 0,0.004 0.004,0 0.009,0 H 75.991 M 74,2 H 2 v 72 h 72 z"
         inkscape:connector-curvature="0"
         style="fill:#757575" />
    </g>
    <g
       id="g34"
       transform="matrix(0.08355263,0,0,0.08355263,0,290.64998)"
       inkscape:export-xdpi="96"
       inkscape:export-ydpi="96"
       inkscape:export-filename="/home/aharkusha/g287.png">
	<g
   id="g32">
		<path
   d="M 0.009,0 H 75.991 C 75.996,0 76,0.004 76,0.009 V 75.99 C 76,75.996 75.996,76 75.991,76 H 0.009 C 0.004,76 0,75.996 0,75.99 V 0.009 C 0,0.004 0.004,0 0.009,0 Z"
   id="rect1313_65_"
   inkscape:connector-curvature="0"
   style="fill:#fdfcfd" />

		<path
   d="M 75.99,0 C 75.995,0 76,0.005 76,0.01 V 75.991 C 76,75.996 75.995,76 75.99,76 H 0.009 C 0.004,76 0,75.996 0,75.991 Z"
   id="path1341_65_"
   inkscape:connector-curvature="0"
   style="fill:#757575" />

		<polygon
   points="67.5,8.508 67.5,67.491 67.492,67.5 8.508,67.5 8.5,67.491 8.5,8.508 8.508,8.5 67.492,8.5 "
   id="rect1311_65_"
   style="fill:#b9b9b9" />

	</g>

</g>
    <g
       id="g65"
       transform="matrix(0.08355263,0,0,0.08355263,6.35,290.64998)"
       inkscape:export-xdpi="96"
       inkscape:export-ydpi="96"
       inkscape:export-filename="/home/aharkusha/g287.png">
	<g
   id="g53">
		<path
   d="M 0.009,0 H 75.991 C 75.996,0 76,0.004 76,0.009 V 75.99 C 76,75.996 75.996,76 75.991,76 H 0.009 C 0.004,76 0,75.996 0,75.99 V 0.009 C 0,0.004 0.004,0 0.009,0 Z"
   id="rect1313_65_-3"
   inkscape:connector-curvature="0"
   style="fill:#fdfcfd" />

		<path
   d="M 75.99,0 C 75.995,0 76,0.005 76,0.01 V 75.991 C 76,75.996 75.995,76 75.99,76 H 0.009 C 0.004,76 0,75.996 0,75.991 Z"
   id="path1341_65_-6"
   inkscape:connector-curvature="0"
   style="fill:#757575" />

		<polygon
   points="67.492,8.5 67.5,8.508 67.5,67.491 67.492,67.5 8.508,67.5 8.5,67.491 8.5,8.508 8.508,8.5 "
   id="rect1311_65_-7"
   style="fill:#b9b9b9" />

	</g>

	<g
   id="g63">
		<polygon
   id="polygon55"
   points="35.999,16.5 40,16.5 40,55.5 35.999,55.5 " />

		<polygon
   id="polygon57"
   points="40,13.875 19.375,27 40,40.125 "
   style="fill:#ff0000" />

		<rect
   id="rect59"
   height="5.5"
   width="18.857"
   y="51.625"
   x="28.570999" />

		<rect
   id="rect61"
   height="7.0409999"
   width="35.555"
   y="56.459"
   x="20.222" />

	</g>

</g>
    <g
       id="rect1313_66_"
       transform="matrix(0.08355263,0,0,0.08355263,12.7,290.64998)"
       inkscape:export-xdpi="96"
       inkscape:export-ydpi="96"
       inkscape:export-filename="/home/aharkusha/g287.png">
	<polygon
   id="polygon84"
   points="1,75.001 1,1 75.001,1 75.001,75.001 "
   style="fill:#b9b9b9" />

	<path
   id="path86"
   d="M 75.991,0 C 75.996,0 76,0.004 76,0.009 V 75.99 C 76,75.996 75.996,76 75.991,76 H 0.009 C 0.004,76 0,75.996 0,75.99 V 0.009 C 0,0.004 0.004,0 0.009,0 H 75.991 M 74,2 H 2 v 72 h 72 z"
   inkscape:connector-curvature="0"
   style="fill:#757575" />

</g>
    <g
       id="g124"
       transform="matrix(0.08355263,0,0,0.08355263,19.05,290.64998)"
       inkscape:export-xdpi="96"
       inkscape:export-ydpi="96"
       inkscape:export-filename="/home/aharkusha/g287.png">
      <g
         id="g104">
	<g
   id="g102">
		<path
   d="M 0.009,0 H 75.991 C 75.996,0 76,0.004 76,0.009 V 75.99 C 76,75.996 75.996,76 75.991,76 H 0.009 C 0.004,76 0,75.996 0,75.99 V 0.009 C 0,0.004 0.004,0 0.009,0 Z"
   id="rect1313_65_-5"
   inkscape:connector-curvature="0"
   style="fill:#fdfcfd" />

		<path
   d="M 75.99,0 C 75.995,0 76,0.005 76,0.01 V 75.991 C 76,75.996 75.995,76 75.99,76 H 0.009 C 0.004,76 0,75.996 0,75.991 Z"
   id="path1341_65_-3"
   inkscape:connector-curvature="0"
   style="fill:#757575" />

		<polygon
   points="67.5,67.491 67.492,67.5 8.508,67.5 8.5,67.491 8.5,8.508 8.508,8.5 67.492,8.5 67.5,8.508 "
   id="rect1311_65_-5"
   style="fill:#b9b9b9" />

	</g>

</g>
      <g
         id="g108">
	<path
   id="path106"
   d="m 24.684,28.694 c 0,-4.57 1.569,-8.347 4.716,-11.338 2.219,-2.109 5.175,-3.164 8.877,-3.164 4.065,0 7.213,1.055 9.433,3.164 2.4,2.285 3.606,5.186 3.606,8.701 0,2.991 -1.109,5.537 -3.329,7.646 -1.295,1.23 -3.052,2.9 -5.271,5.01 -1.664,1.582 -2.497,3.955 -2.497,7.119 h -4.993 c 0,-3.864 0.647,-6.765 1.942,-8.701 0.924,-1.406 2.678,-3.337 5.271,-5.801 1.479,-1.406 2.22,-3.073 2.22,-5.01 0,-2.461 -0.65,-4.307 -1.942,-5.537 -1.109,-1.055 -2.681,-1.582 -4.716,-1.582 -1.665,0 -3.052,0.527 -4.161,1.582 -1.85,1.758 -2.774,4.395 -2.774,7.91 h -6.382 z m 9.987,24.785 h 6.104 v 6.328 h -6.104 z"
   inkscape:connector-curvature="0" />

</g>
    </g>
    <g
       id="g147"
       transform="matrix(0.08355263,0,0,0.08355263,25.4,290.64998)"
       inkscape:export-xdpi="96"
       inkscape:export-ydpi="96"
       inkscape:export-filename="/home/aharkusha/g287.png">
      <g
         id="rect1313_66_-6">
	<polygon
   id="polygon126"
   points="1,75.001 1,1 75.001,1 75.001,75.001 "
   style="fill:#b9b9b9" />

	<path
   id="path128"
   d="M 75.991,0 C 75.996,0 76,0.004 76,0.009 V 75.99 C 76,75.996 75.996,76 75.991,76 H 0.009 C 0.004,76 0,75.996 0,75.99 V 0.009 C 0,0.004 0.004,0 0.009,0 H 75.991 M 74,2 H 2 v 72 h 72 z"
   inkscape:connector-curvature="0"
   style="fill:#757575" />

</g>
      <g
         id="g133">
	<polygon
   id="polygon131"
   points="46.571,54.644 46.571,8.928 40.857,8.928 18,26.071 18,31.785 32.286,31.785 32.286,54.644 18,54.644 18,66.071 58,66.071 58,54.644 "
   style="fill:#0000ff" />

</g>
    </g>
    <g
       id="g167"
       transform="matrix(0.08355263,0,0,0.08355263,31.75,290.64998)"
       inkscape:export-xdpi="96"
       inkscape:export-ydpi="96"
       inkscape:export-filename="/home/aharkusha/g287.png">
      <g
         id="rect1313_66_-2">
	<polygon
   id="polygon149"
   points="1,75.001 1,1 75.001,1 75.001,75.001 "
   style="fill:#b9b9b9" />

	<path
   id="path151"
   d="M 75.991,0 C 75.996,0 76,0.004 76,0.009 V 75.99 C 76,75.996 75.996,76 75.991,76 H 0.009 C 0.004,76 0,75.996 0,75.99 V 0.009 C 0,0.004 0.004,0 0.009,0 H 75.991 M 74,2 H 2 v 72 h 72 z"
   inkscape:connector-curvature="0"
   style="fill:#757575" />

</g>
      <path
         id="path154"
         d="m 51.256,26.134 v -4.545 c 0,-1.545 -1.293,-2.796 -2.892,-2.796 H 27.393 c -1.593,0 -2.892,1.251 -2.892,2.796 v 4.545 H 8.593 V 20.192 C 8.593,14.011 13.778,9 20.163,9 h 35.433 c 6.388,0 11.569,5.011 11.569,11.191 0,4.064 1.287,8.448 -2.521,11.417 -2.649,2.062 -5.948,3.822 -8.757,5.743 -6.993,4.777 -14.083,9.431 -21.093,14.188 -0.91,0.621 -3.707,3.276 -4.87,3.276 0.012,0 37.602,0 37.602,0 V 66 H 8.774 c 0,-4.529 -1.605,-9.863 2.609,-13.253 2.949,-2.372 6.773,-4.315 9.932,-6.502 8,-5.557 16.259,-10.779 24.287,-16.306 0.586,-0.404 5.654,-3.065 5.654,-3.805 z"
         inkscape:connector-curvature="0"
         style="fill:#008200" />
    </g>
    <g
       id="g187"
       transform="matrix(0.08355263,0,0,0.08355263,38.1,290.64998)"
       inkscape:export-xdpi="96"
       inkscape:export-ydpi="96"
       inkscape:export-filename="/home/aharkusha/g287.png">
      <g
         id="rect1313_66_-9">
	<polygon
   id="polygon169"
   points="1,75.001 1,1 75.001,1 75.001,75.001 "
   style="fill:#b9b9b9" />

	<path
   id="path171"
   d="M 75.991,0 C 75.996,0 76,0.004 76,0.009 V 75.99 C 76,75.996 75.996,76 75.991,76 H 0.009 C 0.004,76 0,75.996 0,75.99 V 0.009 C 0,0.004 0.004,0 0.009,0 H 75.991 M 74,2 H 2 v 72 h 72 z"
   inkscape:connector-curvature="0"
   style="fill:#757575" />

</g>
      <path
         id="path174"
         d="M 66.322,20.4 C 66.322,14.105 61.218,9 54.922,9 H 9.678 V 19.688 H 48.51 c 1.575,0 2.85,1.275 2.85,2.85 v 6.413 c 0,1.569 -1.274,2.85 -2.85,2.85 H 26.778 V 44.626 H 48.51 c 1.575,0 2.85,1.274 2.85,2.85 v 6.413 c 0,1.569 -1.274,2.85 -2.85,2.85 H 9.678 V 66 h 45.244 c 6.296,0 11.4,-5.11 11.4,-11.4 V 43.912 c 0,-2.376 -0.729,-4.586 -1.977,-6.412 1.247,-1.832 1.977,-4.036 1.977,-6.413 z"
         inkscape:connector-curvature="0"
         style="fill:#ff0000" />
    </g>
    <g
       id="g207"
       transform="matrix(0.08355263,0,0,0.08355263,44.45,290.64998)"
       inkscape:export-xdpi="96"
       inkscape:export-ydpi="96"
       inkscape:export-filename="/home/aharkusha/g287.png">
      <g
         id="rect1313_66_-1">
	<polygon
   id="polygon189"
   points="1,75.001 1,1 75.001,1 75.001,75.001 "
   style="fill:#b9b9b9" />

	<path
   id="path191"
   d="M 75.991,0 C 75.996,0 76,0.004 76,0.009 V 75.99 C 76,75.996 75.996,76 75.991,76 H 0.009 C 0.004,76 0,75.996 0,75.99 V 0.009 C 0,0.004 0.004,0 0.009,0 H 75.991 M 74,2 H 2 v 72 h 72 z"
   inkscape:connector-curvature="0"
   style="fill:#757575" />

</g>
      <polygon
         id="polygon194"
         points="63.559,9 47.584,9 47.584,32.236 29.192,32.236 41.774,9 25.8,9 6.922,42.765 47.584,42.765 47.584,66 63.559,65.637 63.559,42.765 69.078,42.765 69.078,31.873 63.559,31.873 "
         style="fill:#000084" />
    </g>
    <g
       id="g227"
       transform="matrix(0.08355263,0,0,0.08355263,50.8,290.64998)"
       inkscape:export-xdpi="96"
       inkscape:export-ydpi="96"
       inkscape:export-filename="/home/aharkusha/g287.png">
      <g
         id="rect1313_66_-27">
	<polygon
   id="polygon209"
   points="1,75.001 1,1 75.001,1 75.001,75.001 "
   style="fill:#b9b9b9" />

	<path
   id="path211"
   d="M 75.991,0 C 75.996,0 76,0.004 76,0.009 V 75.99 C 76,75.996 75.996,76 75.991,76 H 0.009 C 0.004,76 0,75.996 0,75.99 V 0.009 C 0,0.004 0.004,0 0.009,0 H 75.991 M 74,2 H 2 v 72 h 72 z"
   inkscape:connector-curvature="0"
   style="fill:#757575" />

</g>
      <path
         id="path214"
         d="m 60.78,32.065 c 1.765,0.757 3.006,1.726 3.869,2.922 1.324,1.837 1.736,4.211 1.736,7.139 0,0.012 0,10.689 0,10.689 0,6.291 -2.494,12.48 -11.401,13.182 H 9.497 V 54.953 h 39.074 c 1.576,0 2.851,-1.279 2.851,-2.85 v -6.412 c 0,-1.57 -1.274,-2.852 -2.851,-2.852 L 9.497,42.852 V 9.001 H 66.503 V 20.397 H 26.031 v 11.668"
         inkscape:connector-curvature="0"
         style="fill:#840000" />
    </g>
    <g
       id="g247"
       transform="matrix(0.08355263,0,0,0.08355263,57.15,290.64998)"
       inkscape:export-xdpi="96"
       inkscape:export-ydpi="96"
       inkscape:export-filename="/home/aharkusha/g287.png">
      <g
         id="rect1313_66_-0">
	<polygon
   id="polygon229"
   points="1,1 75.001,1 75.001,75.001 1,75.001 "
   style="fill:#b9b9b9" />

	<path
   id="path231"
   d="M 75.991,0 C 75.996,0 76,0.004 76,0.009 V 75.99 C 76,75.996 75.996,76 75.991,76 H 0.009 C 0.004,76 0,75.996 0,75.99 V 0.009 C 0,0.004 0.004,0 0.009,0 H 75.991 M 74,2 H 2 v 72 h 72 z"
   inkscape:connector-curvature="0"
   style="fill:#757575" />

</g>
      <path
         id="path234"
         d="m 66.856,23.967 v -3.565 c 0,-6.296 -5.109,-11.4 -11.399,-11.4 H 20.544 c -6.29,0 -11.4,5.104 -11.4,11.4 v 34.197 c 0,6.29 5.11,11.4 11.4,11.4 h 34.913 c 6.29,0 11.399,-5.11 11.399,-11.4 V 43.911 c 0,-4.984 -4.921,-12.11 -11.405,-12.11 H 27.669 c -1.569,0 -2.85,-1.28 -2.85,-2.85 v -6.412 c 0,-1.575 1.28,-2.851 2.85,-2.851 h 20.663 c 1.569,0 2.85,1.275 2.85,2.851 v 1.005 z M 25.531,47.474 c 0,-1.569 1.28,-2.85 2.851,-2.85 h 20.662 c 1.57,0 2.851,1.28 2.851,2.85 v 6.412 c 0,1.57 -1.28,2.851 -2.851,2.851 H 28.382 c -1.57,0 -2.851,-1.28 -2.851,-2.851 z"
         inkscape:connector-curvature="0"
         style="fill:#008284" />
    </g>
    <g
       id="g267"
       transform="matrix(0.08355263,0,0,0.08355263,63.5,290.64998)"
       inkscape:export-xdpi="96"
       inkscape:export-ydpi="96"
       inkscape:export-filename="/home/aharkusha/g287.png">
      <g
         id="rect1313_66_-93">
	<polygon
   id="polygon249"
   points="1,75.001 1,1 75.001,1 75.001,75.001 "
   style="fill:#b9b9b9" />

	<path
   id="path251"
   d="M 75.991,0 C 75.996,0 76,0.004 76,0.009 V 75.99 C 76,75.996 75.996,76 75.991,76 H 0.009 C 0.004,76 0,75.996 0,75.99 V 0.009 C 0,0.004 0.004,0 0.009,0 H 75.991 M 74,2 H 2 v 72 h 72 z"
   inkscape:connector-curvature="0"
   style="fill:#757575" />

</g>
      <polygon
         id="polygon254"
         points="44.834,21.78 10.018,65.999 30.464,65.999 65.291,21.78 65.982,9.001 10.363,9.001 10.363,21.783 "
         style="fill:#840084" />
    </g>
    <g
       id="g287"
       transform="matrix(0.08355263,0,0,0.08355263,69.85,290.64998)"
       inkscape:export-xdpi="96"
       inkscape:export-ydpi="96"
       inkscape:export-filename="/home/aharkusha/g287.png">
      <g
         id="rect1313_66_-60">
	<polygon
   id="polygon269"
   points="1,1 75.001,1 75.001,75.001 1,75.001 "
   style="fill:#b9b9b9" />

	<path
   id="path271"
   d="M 75.991,0 C 75.996,0 76,0.004 76,0.009 V 75.99 C 76,75.996 75.996,76 75.991,76 H 0.009 C 0.004,76 0,75.996 0,75.99 V 0.009 C 0,0.004 0.004,0 0.009,0 H 75.991 M 74,2 H 2 v 72 h 72 z"
   inkscape:connector-curvature="0"
   style="fill:#757575" />

</g>
      <path
         id="path274"
         d="m 66.856,31.087 c 0,2.377 -0.729,4.581 -1.977,6.413 1.247,1.826 1.977,4.036 1.977,6.412 V 54.6 c 0,6.29 -5.104,11.4 -11.4,11.4 H 20.544 c -6.29,0 -11.4,-5.11 -11.4,-11.4 V 43.912 c 0,-2.376 0.729,-4.586 1.982,-6.412 C 9.874,35.668 9.144,33.464 9.144,31.087 V 20.4 c 0,-6.295 5.11,-11.4 11.4,-11.4 h 34.912 c 6.296,0 11.4,5.104 11.4,11.4 z M 51.182,22.538 c 0,-1.575 -1.275,-2.85 -2.851,-2.85 H 27.669 c -1.57,0 -2.851,1.275 -2.851,2.85 v 6.413 c 0,1.569 1.28,2.85 2.851,2.85 h 20.662 c 1.575,0 2.851,-1.28 2.851,-2.85 z m 0,23.512 c 0,-1.575 -1.275,-2.85 -2.851,-2.85 H 27.669 c -1.57,0 -2.851,1.274 -2.851,2.85 v 6.413 c 0,1.569 1.28,2.85 2.851,2.85 h 20.662 c 1.575,0 2.851,-1.28 2.851,-2.85 z"
         inkscape:connector-curvature="0"
         style="fill:#757575" />
    </g>
    <path
       id="path319"
       d="m 81.491666,293.69269 h -0.264583 v -0.13229 h -0.286967 c -0.04048,-0.24114 -0.135308,-0.46371 -0.271463,-0.6549 l 0.203041,-0.20304 -0.09356,-0.0936 0.187113,-0.18711 -0.187113,-0.18711 -0.187114,0.18711 -0.09356,-0.0935 -0.203041,0.20304 c -0.191241,-0.13616 -0.413808,-0.23098 -0.654897,-0.27146 v -0.28692 h -0.132291 v -0.26458 h -0.264584 v 0.26458 h -0.132238 v 0.28697 c -0.241142,0.0405 -0.463709,0.13531 -0.654897,0.27146 l -0.203041,-0.20304 -0.09356,0.0935 -0.187113,-0.18711 -0.187113,0.18711 0.187113,0.18712 -0.09356,0.0936 0.203042,0.20304 c -0.136155,0.19124 -0.230982,0.4138 -0.271463,0.65489 h -0.286915 v 0.13229 h -0.264569 v 0.26459 h 0.264583 v 0.13223 h 0.286968 c 0.04048,0.24115 0.135308,0.46372 0.271462,0.6549 l -0.203041,0.20304 0.09356,0.0936 -0.187114,0.18712 0.187114,0.18711 0.187113,-0.18711 0.09356,0.0935 0.203041,-0.20304 c 0.19124,0.13615 0.413808,0.23098 0.654896,0.27146 v 0.28691 h 0.132292 v 0.26459 h 0.264584 v -0.26459 h 0.132238 v -0.28696 c 0.241142,-0.0405 0.463709,-0.13531 0.654897,-0.27146 l 0.203041,0.20304 0.09356,-0.0936 0.187113,0.18712 0.187113,-0.18712 -0.187113,-0.18711 0.09356,-0.0936 -0.203042,-0.20304 c 0.136155,-0.19124 0.230982,-0.41381 0.271463,-0.65489 h 0.286914 v -0.1323 h 0.264583 z M 79.375,292.50206 v 0.26459 c -0.583565,0 -1.058333,0.47477 -1.058333,1.05833 h -0.264583 c 0,-0.72945 0.593459,-1.32292 1.322916,-1.32292 z"
       inkscape:connector-curvature="0"
       style="stroke:none;stroke-width:0.05291665"
       inkscape:export-filename="/home/aharkusha/g287.png"
       inkscape:export-xdpi="96"
       inkscape:export-ydpi="96" />
  </g>
</svg>
